<svg width="31" height="32" viewBox="0 0 31 32" fill="none" xmlns="http://www.w3.org/2000/svg">
<g clip-path="url(#clip0)">
<path opacity="0.5" d="M28.5 24.4999C28.5 24.4999 30 12 19.5 8.5" stroke="url(#paint0_linear)" stroke-width="3" stroke-linecap="round"/>
<path fill-rule="evenodd" clip-rule="evenodd" d="M13 14H8V20.5C8 24.6421 11.3579 28 15.5 28C19.6421 28 23 24.6421 23 20.5V14H18V15.5C18 16.8807 16.8807 18 15.5 18C14.1193 18 13 16.8807 13 15.5V14Z" fill="#C9CCCE"/>
<path fill-rule="evenodd" clip-rule="evenodd" d="M15 4C11.134 4 8 7.13401 8 11V13H13V10.5C13 9.29052 13.8589 8.28164 15 8.05001V4Z" fill="#94999E"/>
<rect x="14" y="9" width="3" height="8" rx="1.5" fill="#C9CCCE"/>
<path fill-rule="evenodd" clip-rule="evenodd" d="M16 4C19.866 4 23 7.13401 23 11V13H18V10.5C18 9.29052 17.1411 8.28164 16 8.05001V4Z" fill="#C9CCCE"/>
</g>
<defs>
<linearGradient id="paint0_linear" x1="28.5" y1="10" x2="33" y2="22.5" gradientUnits="userSpaceOnUse">
<stop stop-color="#94999E"/>
<stop offset="1" stop-color="#94999E" stop-opacity="0"/>
</linearGradient>
<clipPath id="clip0">
<rect width="31" height="32" fill="white"/>
</clipPath>
</defs>
</svg>
