<svg width="26" height="26" viewBox="0 0 26 26" fill="none" xmlns="http://www.w3.org/2000/svg">
<rect x="2.5" y="2.5" width="14" height="21" rx="3.5" fill="white" stroke="#828282"/>
<path d="M6 2.5H7.5V10.5H2.5V6C2.5 4.067 4.067 2.5 6 2.5Z" fill="white" stroke="#828282"/>
<path d="M13 2.5H11.5V10.5H16.5V6C16.5 4.067 14.933 2.5 13 2.5Z" fill="white" stroke="#828282"/>
<path d="M11.5 2.5H7.5V10.5H11.5V2.5Z" fill="#828282" stroke="#828282"/>
<path d="M22.5 2L19.6132 7L25.3868 7L22.5 2ZM22.5 24L25.3868 19L19.6132 19L22.5 24ZM22 6.5L22 19.5L23 19.5L23 6.5L22 6.5Z" fill="#828282"/>
</svg>
