<svg width="27" height="26" viewBox="0 0 27 26" fill="none" xmlns="http://www.w3.org/2000/svg">
<path d="M16.9086 6.50008C6.40857 3 1.90857 10 2.90857 17.0001" stroke="url(#paint0_linear)" stroke-width="5" stroke-linecap="round" stroke-linejoin="round"/>
<rect x="-0.612372" y="0.353553" width="14" height="21" rx="3.5" transform="matrix(-0.965926 -0.258819 -0.258819 0.965926 25.8876 4.16953)" fill="white" stroke="#828282"/>
<path d="M23.0069 3.76367L21.558 3.37544L19.4874 11.1028L24.3171 12.3969L25.4818 8.05027C25.9821 6.18314 24.874 4.26396 23.0069 3.76367Z" fill="#828282" stroke="#828282"/>
<path d="M16.2454 1.95195L17.6943 2.34018L15.6237 10.0676L10.7941 8.77349L11.9588 4.42683C12.4591 2.5597 14.3783 1.45166 16.2454 1.95195Z" fill="white" stroke="#828282"/>
<path d="M17.6943 2.34016L21.558 3.37543L19.4875 11.1028L15.6238 10.0676L17.6943 2.34016Z" fill="white" stroke="#828282"/>
<defs>
<linearGradient id="paint0_linear" x1="13.9086" y1="6" x2="1.90857" y2="13.5" gradientUnits="userSpaceOnUse">
<stop stop-color="#828282"/>
<stop offset="1" stop-color="#828282" stop-opacity="0"/>
</linearGradient>
</defs>
</svg>
