<svg width="28" height="26" viewBox="0 0 28 26" fill="none" xmlns="http://www.w3.org/2000/svg">
<path d="M10.5 6.50008C21 3 25.5 10 24.5 17.0001" stroke="url(#paint0_linear)" stroke-width="5" stroke-linecap="round" stroke-linejoin="round"/>
<rect x="1.02094" y="4.66953" width="14" height="21" rx="3.5" transform="rotate(-15 1.02094 4.66953)" fill="white" stroke="#828282"/>
<path d="M4.40168 3.76367L5.85057 3.37544L7.92112 11.1028L3.09149 12.3969L1.92681 8.05027C1.42651 6.18314 2.53455 4.26396 4.40168 3.76367Z" fill="#828282" stroke="#828282"/>
<path d="M11.1632 1.95195L9.71428 2.34018L11.7848 10.0676L16.6145 8.77349L15.4498 4.42683C14.9495 2.5597 13.0303 1.45166 11.1632 1.95195Z" fill="white" stroke="#828282"/>
<path d="M9.71426 2.34016L5.85055 3.37543L7.92111 11.1028L11.7848 10.0676L9.71426 2.34016Z" fill="white" stroke="#828282"/>
<defs>
<linearGradient id="paint0_linear" x1="13.5" y1="6" x2="25.5" y2="13.5" gradientUnits="userSpaceOnUse">
<stop stop-color="#828282"/>
<stop offset="1" stop-color="#828282" stop-opacity="0"/>
</linearGradient>
</defs>
</svg>
